# xmcd CD database file generated by OrangeCD 5.1
#
# Track frame offsets:
#	150
#	20005
#	46125
#	66633
#	83047
#	99512
#	122236
#	133348
#	148584
#	165362
#	178911
#	195295
#	211699
#	231357
#	252421
#	270023
#	300595
#	318422
#
# Disc length: 4461 seconds
#
# Revision: 2
# Processed by: cddbd v1.4PL0 Copyright (c) Steve Scherf et al.
# Submitted via: OrangeCD 5.1
#
DISCID=fa116b12
DTITLE=Hopkins, Lightnin' - Complete Prestige/Bluesville Recordings - Disc 5
DYEAR=1900
DGENRE=Blues
TTITLE0=Baby, PLease Don't Go - Live
TTITLE1=My Black Cadillac - Live
TTITLE2=It's Crazy - Live
TTITLE3=Mojo Hand - Live
TTITLE4=My Babe - Live
TTITLE5=Short Haired Woman - Live
TTITLE6=Mean Old Frisco - Live
TTITLE7=Trouble In Mind - Live
TTITLE8=The Twister - Live
TTITLE9=Green Onion - Live
TTITLE10=Sun Goin' Down - Live
TTITLE11=Come Go Home With Me - Live
TTITLE12=I'm A Stranger - Live
TTITLE13=I Got Tired
TTITLE14=I Like To Boogie
TTITLE15=I Asked The Bossman
TTITLE16=I'm Taking A Devil Of A Chance
TTITLE17=Just A Wristwatch On My Arm
EXTD=
EXTT0=
EXTT1=
EXTT2=
EXTT3=
EXTT4=
EXTT5=
EXTT6=
EXTT7=
EXTT8=
EXTT9=
EXTT10=
EXTT11=
EXTT12=
EXTT13=
EXTT14=
EXTT15=
EXTT16=
EXTT17=
PLAYORDER=
